<svg width="15" height="15" viewBox="0 0 15 15" fill="none" xmlns="http://www.w3.org/2000/svg">
<g clip-path="url(#clip0_2078_7491)">
<path d="M7.5 0.960938C3.63396 0.960938 0.5 4.09489 0.5 7.96094C0.5 11.827 3.63396 14.9609 7.5 14.9609C11.366 14.9609 14.5 11.827 14.5 7.96094C14.4957 4.09671 11.3642 0.96521 7.5 0.960938ZM7.5 14.261C4.02061 14.261 1.20004 11.4403 1.20004 7.96094C1.20004 4.48155 4.02061 1.66098 7.5 1.66098C10.9794 1.66098 13.8 4.48155 13.8 7.96094C13.796 11.4387 10.9778 14.2569 7.5 14.261V14.261Z" fill="white"/>
<path d="M7.50049 5.16102C8.31813 5.16508 9.09283 5.5276 9.61995 6.15255C9.74556 6.29952 9.96644 6.31704 10.1135 6.19154C10.2605 6.06603 10.278 5.84504 10.1525 5.69796C8.9026 4.22343 6.69406 4.04121 5.21953 5.29101C3.74489 6.54081 3.56267 8.74946 4.81257 10.224C6.06238 11.6985 8.27092 11.8807 9.74556 10.6309C9.8921 10.5067 10.0282 10.3706 10.1525 10.224C10.278 10.0769 10.2605 9.85603 10.1135 9.73042C9.96644 9.60491 9.74556 9.62243 9.61995 9.7694C8.61805 10.9432 6.85428 11.0824 5.68052 10.0804C4.50688 9.07855 4.3676 7.31477 5.36949 6.14102C5.90173 5.51766 6.68081 5.15931 7.50049 5.16102V5.16102Z" fill="white"/>
</g>
<defs>
<clipPath id="clip0_2078_7491">
<rect width="14" height="14" fill="white" transform="translate(0.5 0.960938)"/>
</clipPath>
</defs>
</svg>
