<svg width="41" height="40" viewBox="0 0 41 40" fill="none" xmlns="http://www.w3.org/2000/svg">
<g clip-path="url(#clip0_2078_1351)">
<path d="M38.278 20.5181C38.1171 20.1888 38.1171 19.8112 38.278 19.4819L39.7699 16.43C40.6005 14.7307 39.9424 12.7053 38.2716 11.8189L35.2709 10.2267C34.9471 10.055 34.7252 9.74934 34.6618 9.38848L34.0749 6.04249C33.7481 4.17953 32.0249 2.92766 30.1524 3.19258L26.789 3.66836C26.4259 3.71961 26.0669 3.60289 25.8036 3.34813L23.3621 0.986269C22.0027 -0.32888 19.873 -0.328958 18.5136 0.986269L16.0721 3.34836C15.8086 3.60321 15.4496 3.71969 15.0867 3.6686L11.7232 3.19282C9.85015 2.92774 8.1275 4.17977 7.80071 6.04272L7.21384 9.38856C7.15048 9.7495 6.92852 10.055 6.60485 10.2268L3.60409 11.819C1.93332 12.7054 1.2752 14.731 2.10582 16.4302L3.59761 19.4821C3.75854 19.8114 3.75854 20.189 3.59761 20.5183L2.10574 23.5701C1.27512 25.2694 1.93324 27.2948 3.60401 28.1813L6.60478 29.7734C6.92852 29.9452 7.15048 30.2508 7.21384 30.6116L7.80071 33.9576C8.09821 35.6536 9.55241 36.8429 11.2237 36.8428C11.3883 36.8428 11.5554 36.8312 11.7233 36.8075L15.0868 36.3317C15.4495 36.2802 15.8087 36.3972 16.0721 36.6519L18.5136 39.0138C19.1935 39.6714 20.0655 40.0002 20.9378 40.0001C21.8099 40 22.6825 39.6713 23.362 39.0138L25.8036 36.6519C26.067 36.3972 26.4261 36.2808 26.789 36.3317L30.1524 36.8075C32.0257 37.0725 33.7481 35.8205 34.0749 33.9576L34.6619 30.6117C34.7252 30.2508 34.9472 29.9452 35.2709 29.7734L38.2716 28.1813C39.9424 27.2949 40.6005 25.2693 39.7699 23.57L38.278 20.5181ZM37.1903 26.1432L34.1895 27.7354C33.2328 28.2431 32.5767 29.1461 32.3895 30.213L31.8027 33.5589C31.6921 34.1892 31.1094 34.6126 30.4756 34.5231L27.1121 34.0473C26.0394 33.8954 24.978 34.2406 24.1995 34.9936L21.758 37.3554C21.2981 37.8003 20.5776 37.8003 20.1176 37.3554L17.6761 34.9936C17.0182 34.3571 16.158 34.0122 15.26 34.0122C15.0955 34.0122 14.9296 34.0237 14.7636 34.0472L11.4001 34.523C10.7668 34.6126 10.1836 34.1891 10.073 33.5588L9.48601 30.2128C9.29882 29.1459 8.64273 28.2429 7.68594 27.7353L4.68518 26.1432C4.11987 25.8432 3.89721 25.158 4.17823 24.5831L5.67009 21.5311C6.14572 20.558 6.14572 19.4419 5.67009 18.4688L4.17823 15.4169C3.89721 14.842 4.11987 14.1567 4.68518 13.8568L7.68594 12.2646C8.64265 11.7569 9.29882 10.8539 9.48593 9.78708L10.0728 6.44116C10.1834 5.81085 10.7661 5.38742 11.3999 5.47695L14.7634 5.95272C15.8357 6.10452 16.8975 5.75944 17.676 5.0064L20.1175 2.64454C20.5774 2.1997 21.2979 2.1997 21.7579 2.64454L24.1994 5.0064C24.9779 5.75952 26.0395 6.10452 27.1119 5.95272L30.4754 5.47695C31.1088 5.38734 31.692 5.81085 31.8025 6.44116L32.3894 9.78716C32.5766 10.854 33.2327 11.7571 34.1895 12.2646L37.1902 13.8568C37.7555 14.1567 37.9782 14.842 37.6972 15.4169L36.2053 18.4687C35.7297 19.4418 35.7297 20.558 36.2053 21.5311L37.6972 24.5829C37.9783 25.158 37.7556 25.8433 37.1903 26.1432Z" fill="black"/>
<path d="M29.3676 11.5712C28.9172 11.1208 28.1868 11.1208 27.7363 11.5712L12.5107 26.7969C12.0602 27.2474 12.0602 27.9778 12.5107 28.4283C12.7359 28.6535 13.0312 28.7661 13.3263 28.7661C13.6215 28.7661 13.9168 28.6536 14.1419 28.4283L29.3676 13.2026C29.8182 12.7521 29.8182 12.0218 29.3676 11.5712Z" fill="black"/>
<path d="M16.3243 9.61838C13.9921 9.61838 12.0947 11.5158 12.0947 13.848C12.0947 16.1801 13.9921 18.0775 16.3243 18.0775C18.6565 18.0775 20.5539 16.1801 20.5539 13.848C20.5539 11.5158 18.6565 9.61838 16.3243 9.61838ZM16.3243 15.7705C15.2642 15.7705 14.4018 14.908 14.4018 13.8479C14.4018 12.7878 15.2642 11.9254 16.3243 11.9254C17.3844 11.9254 18.2469 12.7878 18.2469 13.8479C18.2468 14.908 17.3844 15.7705 16.3243 15.7705Z" fill="black"/>
<path d="M25.5528 21.9225C23.2207 21.9225 21.3232 23.8199 21.3232 26.1521C21.3232 28.4842 23.2207 30.3817 25.5528 30.3817C27.885 30.3817 29.7824 28.4842 29.7824 26.1521C29.7824 23.8199 27.885 21.9225 25.5528 21.9225ZM25.5528 28.0746C24.4928 28.0746 23.6303 27.2121 23.6303 26.1521C23.6303 25.092 24.4927 24.2296 25.5528 24.2296C26.6129 24.2296 27.4753 25.092 27.4753 26.1521C27.4753 27.2121 26.6129 28.0746 25.5528 28.0746Z" fill="black"/>
</g>
<defs>
<clipPath id="clip0_2078_1351">
<rect width="40" height="40" fill="white" transform="translate(0.938477)"/>
</clipPath>
</defs>
</svg>
