<svg width="41" height="40" viewBox="0 0 41 40" fill="none" xmlns="http://www.w3.org/2000/svg">
<path d="M37.9677 16.6531C37.1691 16.1596 36.2802 16.0591 35.4961 16.1363V15.3125C35.4961 6.8907 28.6044 0 20.1836 0C11.7618 0 4.87109 6.89172 4.87109 15.3125V16.1363C4.08703 16.0591 3.19797 16.1596 2.39945 16.6531C0.929063 17.5619 0.183594 19.4765 0.183594 22.3438C0.183594 25.2158 0.930469 27.1405 2.40352 28.0647C3.13523 28.5238 3.98977 28.6832 4.87109 28.6074V29.4531C4.87109 30.1003 5.39578 30.625 6.04297 30.625H10.7305C11.3777 30.625 11.9023 30.1003 11.9023 29.4531V15.3125C11.9023 14.6653 11.3777 14.1406 10.7305 14.1406H7.26836C7.86273 7.5368 13.4277 2.34375 20.1836 2.34375C26.9395 2.34375 32.5045 7.5368 33.0988 14.1406H29.6367C28.9895 14.1406 28.4648 14.6653 28.4648 15.3125V29.4531C28.4648 30.1003 28.9895 30.625 29.6367 30.625H33.1523V31.7969C33.1523 33.7354 31.5752 35.3125 29.6367 35.3125H25.8414C25.3577 33.9486 24.0551 32.9688 22.5273 32.9688H20.1836C18.2451 32.9688 16.668 34.5459 16.668 36.4844C16.668 38.4229 18.2451 40 20.1836 40H22.5273C24.0551 40 25.3577 39.0202 25.8414 37.6562H29.6367C32.8676 37.6562 35.4961 35.0277 35.4961 31.7969C35.4961 30.3695 35.4961 29.5337 35.4961 28.6073C36.3775 28.6831 37.2321 28.5236 37.9637 28.0646C39.4367 27.1405 40.1836 25.2158 40.1836 22.3438C40.1836 19.4765 39.4381 17.5619 37.9677 16.6531ZM4.87109 26.2485C4.49719 26.3136 4.02984 26.3181 3.64906 26.0792C2.9257 25.6255 2.52734 24.2988 2.52734 22.3438C2.52734 20.4074 2.9168 19.0962 3.62391 18.6516C4.00625 18.4112 4.48797 18.4284 4.87109 18.504V26.2485ZM9.55859 16.4844V28.2812H7.21484V16.4844H9.55859ZM22.5273 37.6562H20.1836C19.5374 37.6562 19.0117 37.1305 19.0117 36.4844C19.0117 35.8382 19.5374 35.3125 20.1836 35.3125H22.5273C23.1735 35.3125 23.6992 35.8382 23.6992 36.4844C23.6992 37.1305 23.1735 37.6562 22.5273 37.6562ZM33.1523 28.2812H30.8086V16.4844H33.1523V28.2812ZM36.7265 26.074C36.3477 26.3158 35.8752 26.3111 35.4961 26.2454V18.5041C35.8792 18.4284 36.3609 18.4113 36.7433 18.6517C37.4504 19.0962 37.8398 20.4074 37.8398 22.3438C37.8398 24.2909 37.4444 25.6156 36.7265 26.074Z" fill="#030522"/>
</svg>
