<svg width="18" height="17" viewBox="0 0 18 17" fill="none" xmlns="http://www.w3.org/2000/svg">
<path d="M0.923828 1.93206C0.923828 1.39015 1.11484 0.943081 1.49685 0.590855C1.87886 0.238613 2.3755 0.0625 2.98672 0.0625C3.58704 0.0625 4.07273 0.235898 4.44384 0.582726C4.82585 0.940382 5.01686 1.40641 5.01686 1.98083C5.01686 2.50106 4.83132 2.93457 4.46021 3.2814C4.0782 3.63906 3.57611 3.81788 2.95397 3.81788H2.9376C2.33728 3.81788 1.85159 3.63906 1.48048 3.2814C1.10937 2.92374 0.923828 2.47396 0.923828 1.93206ZM1.13667 16.157V5.29728H4.77128V16.157H1.13667ZM6.78505 16.157H10.4197V10.0931C10.4197 9.71377 10.4633 9.42114 10.5506 9.21523C10.7034 8.84673 10.9354 8.53513 11.2465 8.28045C11.5575 8.02575 11.9477 7.89841 12.4171 7.89841C13.6395 7.89841 14.2508 8.71668 14.2508 10.3532V16.157H17.8854V9.93054C17.8854 8.32651 17.5034 7.10994 16.7393 6.28083C15.9753 5.45172 14.9657 5.03716 13.7105 5.03716C12.3025 5.03716 11.2055 5.63868 10.4197 6.8417V6.87421H10.4033L10.4197 6.8417V5.29728H6.78505C6.80688 5.64409 6.8178 6.72247 6.8178 8.53243C6.8178 10.3424 6.80688 12.8839 6.78505 16.157Z" fill="#17181C"/>
</svg>
