<svg width="30" height="30" viewBox="0 0 30 30" fill="none" xmlns="http://www.w3.org/2000/svg">
<rect width="30" height="30" rx="15" fill="#313EF7"/>
<path d="M15.0007 15C15.459 15 15.8515 14.8367 16.1782 14.51C16.5043 14.1839 16.6673 13.7917 16.6673 13.3334C16.6673 12.875 16.5043 12.4825 16.1782 12.1559C15.8515 11.8297 15.459 11.6667 15.0007 11.6667C14.5423 11.6667 14.1501 11.8297 13.824 12.1559C13.4973 12.4825 13.334 12.875 13.334 13.3334C13.334 13.7917 13.4973 14.1839 13.824 14.51C14.1501 14.8367 14.5423 15 15.0007 15ZM15.0007 23.3334C12.7645 21.4306 11.0945 19.6631 9.99065 18.0309C8.88621 16.3992 8.33398 14.8889 8.33398 13.5C8.33398 11.4167 9.00426 9.75696 10.3448 8.52085C11.6848 7.28474 13.2368 6.66669 15.0007 6.66669C16.7645 6.66669 18.3165 7.28474 19.6565 8.52085C20.997 9.75696 21.6673 11.4167 21.6673 13.5C21.6673 14.8889 21.1154 16.3992 20.0115 18.0309C18.907 19.6631 17.2368 21.4306 15.0007 23.3334Z" fill="white"/>
</svg>
