<svg width="41" height="40" viewBox="0 0 41 40" fill="none" xmlns="http://www.w3.org/2000/svg">
<path d="M33.7132 29.2667C34.2652 29.2667 34.7132 28.8187 34.7132 28.2667V19.5467C34.7118 18.48 33.8465 17.6147 32.7798 17.6134H30.5278V10.8C30.5225 5.02137 25.8398 0.338707 20.0612 0.333374C14.2825 0.338707 9.59985 5.02137 9.59451 10.8V17.6067H7.34251C6.27585 17.608 5.41051 18.4734 5.40918 19.54V34.792C5.41185 37.4827 7.59318 39.664 10.2838 39.6667H29.8385C32.5292 39.664 34.7105 37.4827 34.7132 34.792C34.7132 34.24 34.2652 33.792 33.7132 33.792C33.1612 33.792 32.7132 34.24 32.7132 34.792C32.7105 36.3787 31.4252 37.664 29.8385 37.6667H10.2838C8.69718 37.664 7.41185 36.3787 7.40918 34.792L7.34251 19.6067H10.5945C11.1465 19.6067 11.5945 19.1587 11.5945 18.6067V10.8C11.9838 -0.401292 28.1385 -0.402626 28.5278 10.8V17.6067H17.3945C16.8425 17.6067 16.3945 18.0547 16.3945 18.6067C16.3945 19.1587 16.8425 19.6067 17.3945 19.6067C19.9505 19.5934 30.3852 19.556 32.7132 19.54V28.2667C32.7132 28.8187 33.1612 29.2667 33.7132 29.2667Z" fill="#030522"/>
<path d="M17.8564 28.6358C17.9058 31.5345 22.2178 31.5345 22.2671 28.6358C22.2178 25.7371 17.9058 25.7371 17.8564 28.6358Z" fill="#030522"/>
</svg>
