<svg width="41" height="40" viewBox="0 0 41 40" fill="none" xmlns="http://www.w3.org/2000/svg">
<g clip-path="url(#clip0_2078_1336)">
<path d="M32.5742 34.1516C32.5233 34.1516 32.4717 34.1461 32.421 34.1361C32.3716 34.1257 32.3224 34.111 32.2748 34.0915C32.2278 34.072 32.1827 34.0479 32.1406 34.0195C32.0975 33.9908 32.0576 33.9588 32.0215 33.9218C31.9858 33.8861 31.9529 33.8461 31.9248 33.804C31.8958 33.761 31.8723 33.7155 31.8528 33.6688C31.8333 33.6218 31.8177 33.5727 31.8076 33.5227C31.7975 33.472 31.793 33.421 31.793 33.3695C31.793 33.3188 31.7975 33.2672 31.8076 33.2172C31.8177 33.1671 31.8326 33.118 31.8522 33.071C31.8717 33.0234 31.8958 32.9782 31.9239 32.9361C31.9529 32.8931 31.9858 32.8531 32.0215 32.8171C32.0576 32.7814 32.0975 32.7484 32.1406 32.7204C32.1827 32.6923 32.2278 32.6679 32.2748 32.6483C32.3224 32.6288 32.3716 32.6142 32.421 32.6041C32.5226 32.5836 32.6255 32.5836 32.7265 32.6041C32.7766 32.6142 32.8257 32.6288 32.8724 32.6483C32.92 32.6679 32.9655 32.6923 33.0076 32.7204C33.0506 32.7484 33.0903 32.7814 33.1263 32.8171C33.1623 32.8531 33.1953 32.8931 33.2233 32.9361C33.2514 32.9782 33.2755 33.0234 33.295 33.071C33.3146 33.118 33.3295 33.1671 33.3396 33.2172C33.3497 33.2672 33.3552 33.3188 33.3552 33.3695C33.3552 33.421 33.3497 33.472 33.3396 33.5227C33.3295 33.5727 33.3146 33.6218 33.295 33.6688C33.2755 33.7155 33.2514 33.761 33.2233 33.804C33.1953 33.8461 33.1623 33.8861 33.1263 33.9218C33.0903 33.9588 33.0506 33.9908 33.0076 34.0195C32.9655 34.0476 32.92 34.072 32.8724 34.0915C32.8257 34.111 32.7766 34.126 32.7265 34.1361C32.6765 34.1461 32.6249 34.1516 32.5742 34.1516Z" fill="#030522"/>
<path d="M21.6782 24.9951H19.5087C19.2746 24.9951 19.0527 24.8901 18.9044 24.7089C18.7561 24.5279 18.6966 24.2896 18.7427 24.0601L19.473 20.419H16.1429L15.0583 21.3226C14.9179 21.4398 14.7409 21.5036 14.5584 21.5036H12.3886C12.1295 21.5036 11.8872 21.3751 11.7419 21.1606C11.5964 20.9457 11.5671 20.6732 11.6632 20.4324L12.6321 18.0106L11.6632 15.5887C11.5671 15.3479 11.5964 15.0754 11.7419 14.8605C11.8872 14.646 12.1295 14.5172 12.3886 14.5172H14.5584C14.7409 14.5172 14.9179 14.5813 15.0583 14.6985L16.1429 15.6021H19.473L18.7427 11.9611C18.6966 11.7313 18.7561 11.4932 18.9044 11.3123C19.0527 11.131 19.2746 11.026 19.5087 11.026H21.6782C21.9492 11.026 22.2009 11.1664 22.3431 11.3971L24.9377 15.6021H27.6446C28.9728 15.6021 30.0531 16.6824 30.0531 18.0106C30.0531 19.3387 28.9728 20.419 27.6446 20.419H24.9377L22.3431 24.624C22.2009 24.8547 21.9492 24.9951 21.6782 24.9951ZM20.4623 23.4326H21.2424L23.837 19.2276C23.9792 18.9969 24.231 18.8565 24.5019 18.8565H27.6446C28.1113 18.8565 28.4906 18.4772 28.4906 18.0106C28.4906 17.5439 28.1113 17.1646 27.6446 17.1646H24.5019C24.231 17.1646 23.9795 17.0242 23.837 16.7935L21.2424 12.5885H20.4623L21.1926 16.2296C21.2387 16.4594 21.1792 16.6974 21.0309 16.8787C20.8826 17.0596 20.6607 17.1646 20.4266 17.1646H15.8603C15.6775 17.1646 15.5005 17.1005 15.3601 16.9836L14.2755 16.0797H13.5428L14.1989 17.7203C14.2734 17.9068 14.2734 18.1146 14.1989 18.3008L13.5428 19.9414H14.2755L15.3601 19.0378C15.5005 18.9206 15.6775 18.8565 15.8603 18.8565H20.4266C20.6607 18.8565 20.8826 18.9618 21.0309 19.1428C21.1792 19.3237 21.2387 19.5621 21.1926 19.7916L20.4623 23.4326Z" fill="#030522"/>
<path d="M29.1281 33.7225H12.5293C12.0981 33.7225 11.748 33.3727 11.748 32.9412V28.1368C11.748 27.7053 12.0981 27.3556 12.5293 27.3556H29.1281C29.5596 27.3556 29.9094 27.7053 29.9094 28.1368V32.9412C29.9094 33.3727 29.5596 33.7225 29.1281 33.7225ZM13.3105 32.16H28.3469V28.9181H13.3105V32.16Z" fill="#030522"/>
<path d="M36.4835 1.56342H33.3564V0.78125C33.3564 0.349731 33.0063 0 32.5751 0H7.39386C5.70563 0 4.33203 1.37329 4.33203 3.06152V36.9382C4.33203 38.6264 5.70532 40 7.39355 40H36.4835C36.915 40 37.2648 39.6503 37.2648 39.2188V2.34467C37.2648 1.91315 36.915 1.56342 36.4835 1.56342ZM31.7936 1.5625V10.9662L29.592 9.92828C29.3812 9.8288 29.137 9.8288 28.9261 9.92798L26.7185 10.9671V1.5625H31.7936ZM35.7023 38.4375H9.86517V6.74316C9.86517 6.31165 9.51544 5.96191 9.08392 5.96191C8.65241 5.96191 8.30267 6.31165 8.30267 6.74316V38.4375H7.39386C6.56714 38.4375 5.89453 37.7649 5.89453 36.9382V3.06152C5.89453 2.23511 6.56714 1.5625 7.39386 1.5625H25.156V12.1985C25.156 12.4658 25.293 12.7145 25.5189 12.858C25.6458 12.9385 25.7914 12.9797 25.9376 12.9797C26.0508 12.9797 26.1643 12.955 26.2702 12.9053L29.2585 11.4984L31.7936 12.6938V29.5807C31.7936 30.0122 32.1436 30.3619 32.5748 30.3619C33.0063 30.3619 33.3561 30.0122 33.3561 29.5807V3.12592H35.7023V38.4375Z" fill="#030522"/>
</g>
<defs>
<clipPath id="clip0_2078_1336">
<rect width="40" height="40" fill="white" transform="translate(0.816406)"/>
</clipPath>
</defs>
</svg>
