<svg width="167" height="154" viewBox="0 0 167 154" fill="none" xmlns="http://www.w3.org/2000/svg">
<path d="M96.1751 86.8472C94.8168 87.1514 93.4938 87.715 92.2882 88.5024C89.1474 90.5037 87.3201 93.3604 88.2071 94.8826C89.094 96.4047 92.3591 96.0154 95.4998 94.0141C96.7216 93.2545 97.807 92.2837 98.6892 91.1618C99.0986 90.6197 99.172 89.9442 98.8768 89.4393L97.7246 87.4619C97.4315 86.9554 96.8234 86.7145 96.1751 86.8472Z" fill="#D5D6DB"/>
<path d="M88.2875 59.8541C87.3025 60.0748 86.3431 60.4837 85.4688 61.0547C83.192 62.5055 81.8662 64.5769 82.5088 65.6797C83.1514 66.7825 85.5199 66.4999 87.7965 65.0493C88.6824 64.4982 89.4693 63.794 90.1091 62.9803C90.4056 62.5874 90.4587 62.098 90.2447 61.732L89.4105 60.3002C89.1982 59.933 88.7576 59.758 88.2875 59.8541Z" fill="#D5D6DB"/>
<path d="M75.473 60.9845C75.2538 60.96 75.02 61.0184 74.8172 61.1479L69.469 64.5562C69.0217 64.8404 68.8427 65.3877 69.0696 65.7789C69.1215 65.8685 69.1925 65.9451 69.2787 66.0041L82.4604 75.089L100.294 63.7243L75.473 60.9845Z" fill="#029BC5"/>
<path d="M131.85 59.6999L83.3184 90.252L54.6056 101.677L39.9625 104.588L38.3516 101.851L119.247 51.9043C121.657 50.4095 124.343 49.4919 127.032 49.2448C128.209 49.1429 129.372 49.1821 130.493 49.3609C131.487 49.5116 132.43 49.8023 133.294 50.2244C134.258 50.7026 136.093 50.7578 136.687 51.7106C136.689 51.7091 138.091 56.0835 131.85 59.6999Z" fill="#E1E6E9"/>
<path d="M83.9617 86.2095L62.9665 119.679C62.7042 120.15 62.8599 120.676 63.3138 120.855C63.5923 120.965 63.9333 120.922 64.2197 120.74L69.5637 117.35C70.5915 116.697 71.5016 115.869 72.2378 114.915L112.954 67.0462L83.9617 86.2095Z" fill="#029BC5"/>
<path d="M30.9821 85.092C30.6319 84.9723 30.2151 85.0344 29.8633 85.2584L25.4458 88.0718C24.8439 88.4549 24.604 89.1913 24.9099 89.717C24.9682 89.8169 25.0439 89.9049 25.1346 89.9773L37.5114 99.8896L50.5244 91.7615L30.9821 85.092Z" fill="#029BC5"/>
<path d="M41.6599 101.677L34.9985 111.006C34.9008 111.14 34.9238 111.308 35.0497 111.382C35.1406 111.435 35.2646 111.425 35.3654 111.358L39.4936 108.742C39.5257 108.721 39.5547 108.696 39.5787 108.667L49.3123 96.832L41.6599 101.677Z" fill="#029BC5"/>
<path d="M129.697 49.7631C128.542 49.5777 127.345 49.5381 126.132 49.6447C124.951 51.2958 124.196 53.1505 123.943 55.0239C123.924 55.4002 124.228 55.6711 124.621 55.6289C124.743 55.6156 124.864 55.5727 124.973 55.504L132.581 50.6597C131.692 50.2211 130.721 49.9193 129.697 49.7631Z" fill="#029BC5"/>
<path d="M113.117 58.6713L118.084 55.5343L122.711 63.4033L117.744 66.5403L113.117 58.6713Z" fill="#D5D6DB"/>
<path d="M109.992 61.7834C109.394 62.1625 109.154 62.8913 109.458 63.411L109.951 64.253C110.275 64.7595 111.014 64.8485 111.602 64.4518C112.162 64.074 112.387 63.3874 112.118 62.8803L111.625 62.0383C111.322 61.5191 110.591 61.4048 109.992 61.7834Z" fill="#3A556A"/>
<path d="M105.528 64.5559C104.93 64.9351 104.691 65.6639 104.994 66.1836L105.487 67.0256C105.811 67.532 106.55 67.6211 107.138 67.2244C107.698 66.8466 107.923 66.1599 107.654 65.6529L107.161 64.8109C106.858 64.2918 106.127 64.1775 105.528 64.5559Z" fill="#3A556A"/>
<path d="M101.062 67.3292C100.464 67.7089 100.226 68.4368 100.53 68.956L101.022 69.798C101.346 70.3044 102.085 70.3935 102.673 69.9968C103.233 69.619 103.459 68.9324 103.189 68.4254L102.697 67.5834C102.393 67.0637 101.661 66.9499 101.062 67.3292Z" fill="#3A556A"/>
<path d="M96.5984 70.1017C96.0005 70.4813 95.7622 71.2092 96.0658 71.7285L96.5581 72.5705C96.8819 73.077 97.6212 73.166 98.2095 72.7693C98.7693 72.3915 98.9948 71.7049 98.725 71.1978L98.2327 70.3558C97.9285 69.8363 97.197 69.7225 96.5984 70.1017Z" fill="#3A556A"/>
<path d="M92.1342 72.8743C91.536 73.2541 91.2975 73.9824 91.6013 74.5019L92.0939 75.3442C92.3975 75.8635 93.1288 75.9772 93.7272 75.5982C94.3255 75.2192 94.5644 74.491 94.2608 73.9718L93.7682 73.1294C93.4652 72.6097 92.7343 72.4952 92.1355 72.8735C92.135 72.8738 92.1347 72.874 92.1342 72.8743Z" fill="#3A556A"/>
<path d="M87.6694 75.6468C87.0711 76.0266 86.8326 76.7548 87.1364 77.2743L87.629 78.1167C87.9327 78.6359 88.6639 78.7497 89.2623 78.3707C89.8607 77.9917 90.0996 77.2635 89.7959 76.7442L89.3033 75.9019C89.0004 75.3821 88.2694 75.2677 87.6706 75.646C87.6701 75.6463 87.6696 75.6466 87.6694 75.6468Z" fill="#3A556A"/>
<path d="M83.2045 78.4193C82.6063 78.7991 82.3678 79.5273 82.6716 80.0468L83.1642 80.8891C83.4686 81.4078 84.2002 81.5204 84.7979 81.1409C85.3946 80.7621 85.633 80.0355 85.3308 79.5168L84.8382 78.6745C84.5346 78.1549 83.8034 78.0406 83.2045 78.4193Z" fill="#3A556A"/>
<path d="M78.7407 81.1917C78.1424 81.5715 77.9039 82.2998 78.2077 82.8192L78.7003 83.6616C79.0047 84.1804 79.7363 84.293 80.334 83.9135C80.9308 83.5346 81.1692 82.808 80.8669 82.2893L80.3743 81.447C80.0708 80.9273 79.3395 80.813 78.7407 81.1917Z" fill="#3A556A"/>
<path d="M74.2758 83.9642C73.6776 84.344 73.4391 85.0722 73.7429 85.5917L74.2354 86.434C74.5399 86.9528 75.2715 87.0653 75.8692 86.6859C76.4659 86.307 76.7043 85.5804 76.402 85.0617L75.9095 84.2194C75.6057 83.7 74.8744 83.5856 74.2758 83.9642Z" fill="#3A556A"/>
<path d="M69.81 86.7374C69.2116 87.1164 68.9727 87.8445 69.2764 88.3638L69.277 88.3649L69.7696 89.2072C70.0741 89.726 70.8057 89.8386 71.4034 89.4591C72.0001 89.0803 72.2385 88.3536 71.9362 87.835L71.4436 86.9926C71.1401 86.473 70.4089 86.3586 69.81 86.7374Z" fill="#3A556A"/>
<path d="M65.3471 89.5091C64.7487 89.8881 64.5098 90.6163 64.8135 91.1355L64.8142 91.1366L65.3068 91.9789C65.6112 92.4977 66.3428 92.6103 66.9405 92.2308C67.5373 91.852 67.7757 91.1253 67.4734 90.6067L66.9808 89.7644C66.677 89.2449 65.9457 89.1306 65.3471 89.5091Z" fill="#3A556A"/>
</svg>
