<svg width="106" height="14" viewBox="0 0 106 14" fill="none" xmlns="http://www.w3.org/2000/svg">
<path d="M13.7219 5.16485L9.75474 4.58829L7.9813 0.992975C7.93287 0.894537 7.85318 0.81485 7.75474 0.766412C7.50787 0.644537 7.20787 0.7461 7.08443 0.992975L5.31099 4.58829L1.3438 5.16485C1.23443 5.18047 1.13443 5.23204 1.05787 5.31016C0.965306 5.4053 0.914302 5.53329 0.91606 5.66601C0.917818 5.79873 0.972194 5.92532 1.06724 6.01797L3.93755 8.81641L3.25943 12.768C3.24353 12.8599 3.2537 12.9544 3.28879 13.0409C3.32388 13.1273 3.38249 13.2022 3.45797 13.257C3.53345 13.3118 3.62278 13.3444 3.71583 13.351C3.80889 13.3577 3.90193 13.3381 3.98443 13.2945L7.53287 11.4289L11.0813 13.2945C11.1782 13.3461 11.2907 13.3633 11.3985 13.3445C11.6704 13.2977 11.8532 13.0399 11.8063 12.768L11.1282 8.81641L13.9985 6.01797C14.0766 5.94141 14.1282 5.84141 14.1438 5.73204C14.186 5.4586 13.9954 5.20547 13.7219 5.16485Z" fill="#FF9900"/>
<path d="M59.3391 5.16485L55.3719 4.58829L53.5985 0.992975C53.5501 0.894537 53.4704 0.81485 53.3719 0.766412C53.1251 0.644537 52.8251 0.7461 52.7016 0.992975L50.9282 4.58829L46.961 5.16485C46.8516 5.18047 46.7516 5.23204 46.6751 5.31016C46.5825 5.4053 46.5315 5.53329 46.5332 5.66601C46.535 5.79873 46.5894 5.92532 46.6844 6.01797L49.5547 8.81641L48.8766 12.768C48.8607 12.8599 48.8709 12.9544 48.906 13.0409C48.9411 13.1273 48.9997 13.2022 49.0752 13.257C49.1506 13.3118 49.24 13.3444 49.333 13.351C49.4261 13.3577 49.5191 13.3381 49.6016 13.2945L53.1501 11.4289L56.6985 13.2945C56.7954 13.3461 56.9079 13.3633 57.0157 13.3445C57.2876 13.2977 57.4704 13.0399 57.4235 12.768L56.7454 8.81641L59.6157 6.01797C59.6938 5.94141 59.7454 5.84141 59.761 5.73204C59.8032 5.4586 59.6126 5.20547 59.3391 5.16485Z" fill="#FF9900"/>
<path d="M36.3391 5.09771L32.3719 4.52115L30.5985 0.925836C30.5501 0.827398 30.4704 0.747711 30.3719 0.699273C30.1251 0.577398 29.8251 0.678961 29.7016 0.925836L27.9282 4.52115L23.961 5.09771C23.8516 5.11334 23.7516 5.1649 23.6751 5.24302C23.5825 5.33816 23.5315 5.46615 23.5332 5.59887C23.535 5.73159 23.5894 5.85819 23.6844 5.95084L26.5547 8.74927L25.8766 12.7008C25.8607 12.7928 25.8709 12.8873 25.906 12.9737C25.9411 13.0602 25.9997 13.135 26.0752 13.1899C26.1506 13.2447 26.24 13.2773 26.333 13.2839C26.4261 13.2905 26.5191 13.271 26.6016 13.2274L30.1501 11.3618L33.6985 13.2274C33.7954 13.279 33.9079 13.2961 34.0157 13.2774C34.2876 13.2305 34.4704 12.9727 34.4235 12.7008L33.7454 8.74927L36.6157 5.95084C36.6938 5.87427 36.7454 5.77427 36.761 5.6649C36.8032 5.39146 36.6126 5.13834 36.3391 5.09771Z" fill="#FF9900"/>
<path d="M82.3391 5.09771L78.3719 4.52115L76.5985 0.925836C76.5501 0.827398 76.4704 0.747711 76.3719 0.699273C76.1251 0.577398 75.8251 0.678961 75.7016 0.925836L73.9282 4.52115L69.961 5.09771C69.8516 5.11334 69.7516 5.1649 69.6751 5.24302C69.5825 5.33816 69.5315 5.46615 69.5332 5.59887C69.535 5.73159 69.5894 5.85819 69.6844 5.95084L72.5547 8.74927L71.8766 12.7008C71.8607 12.7928 71.8709 12.8873 71.906 12.9737C71.9411 13.0602 71.9997 13.135 72.0752 13.1899C72.1506 13.2447 72.24 13.2773 72.333 13.2839C72.4261 13.2905 72.5191 13.271 72.6016 13.2274L76.1501 11.3618L79.6985 13.2274C79.7954 13.279 79.9079 13.2961 80.0157 13.2774C80.2876 13.2305 80.4704 12.9727 80.4235 12.7008L79.7454 8.74927L82.6157 5.95084C82.6938 5.87427 82.7454 5.77427 82.761 5.6649C82.8032 5.39146 82.6126 5.13834 82.3391 5.09771Z" fill="#FF9900"/>
<path d="M105.339 5.09771L101.372 4.52115L99.5985 0.925836C99.5501 0.827398 99.4704 0.747711 99.3719 0.699273C99.1251 0.577398 98.8251 0.678961 98.7016 0.925836L96.9282 4.52115L92.961 5.09771C92.8516 5.11334 92.7516 5.1649 92.6751 5.24302C92.5825 5.33816 92.5315 5.46615 92.5332 5.59887C92.535 5.73159 92.5894 5.85819 92.6844 5.95084L95.5547 8.74927L94.8766 12.7008C94.8607 12.7928 94.8709 12.8873 94.906 12.9737C94.9411 13.0602 94.9997 13.135 95.0752 13.1899C95.1506 13.2447 95.24 13.2773 95.333 13.2839C95.4261 13.2905 95.5191 13.271 95.6016 13.2274L99.1501 11.3618L102.698 13.2274C102.795 13.279 102.908 13.2961 103.016 13.2774C103.288 13.2305 103.47 12.9727 103.423 12.7008L102.745 8.74927L105.616 5.95084C105.694 5.87427 105.745 5.77427 105.761 5.6649C105.803 5.39146 105.613 5.13834 105.339 5.09771Z" fill="#FF9900"/>
</svg>
