<svg width="22" height="17" viewBox="0 0 22 17" fill="none" xmlns="http://www.w3.org/2000/svg">
<path d="M21.5 1.96784C20.7191 2.29097 19.8869 2.50515 19.0194 2.60915C19.9119 2.1065 20.5931 1.31663 20.9133 0.364581C20.0812 0.83256 19.1624 1.16312 18.1833 1.34758C17.3932 0.554001 16.2671 0.0625 15.0386 0.0625C12.6551 0.0625 10.7362 1.88737 10.7362 4.1245C10.7362 4.44639 10.7651 4.7559 10.8359 5.05056C7.25675 4.8859 4.08969 3.26778 1.96212 0.802847C1.59069 1.41072 1.37281 2.1065 1.37281 2.85552C1.37281 4.26193 2.14062 5.50863 3.28513 6.23041C2.59344 6.21803 1.91488 6.02861 1.34 5.73024C1.34 5.74262 1.34 5.75872 1.34 5.77481C1.34 7.74824 2.83231 9.38741 4.78925 9.76501C4.43881 9.85538 4.05687 9.89872 3.6605 9.89872C3.38488 9.89872 3.10662 9.88386 2.84544 9.82939C3.40325 11.4376 4.98613 12.6199 6.86825 12.6583C5.4035 13.7391 3.54369 14.3903 1.53031 14.3903C1.17725 14.3903 0.838625 14.3755 0.5 14.3346C2.40706 15.4946 4.66719 16.157 7.1045 16.157C15.0267 16.157 19.358 9.96681 19.358 4.60115C19.358 4.42163 19.3514 4.24831 19.3423 4.07622C20.1967 3.50425 20.9146 2.7899 21.5 1.96784Z" fill="#17181C"/>
</svg>
